<?xml version="1.0" encoding="utf-8"?>
<!-- Generator: Adobe Illustrator 23.0.5, SVG Export Plug-In . SVG Version: 6.00 Build 0)  -->
<svg version="1.1" id="Layer_1" xmlns="http://www.w3.org/2000/svg" xmlns:xlink="http://www.w3.org/1999/xlink" x="0px" y="0px"
	 width="131.3px" height="41.7px" viewBox="0 0 131.3 41.7" style="enable-background:new 0 0 131.3 41.7;" xml:space="preserve">
<style type="text/css">
	.st0{fill:#FFCE00;}
	.st1{fill:#353334;}
</style>
<path class="st0" d="M13.4,21l0.6-3.3c0.1-0.6-0.4-1.2-1-1.2H9.5c-0.5,0-0.9,0.4-1,0.8l-0.6,3.3c-0.1,0.6,0.4,1.2,1,1.2h3.5
	C12.9,21.8,13.3,21.5,13.4,21z"/>
<path class="st0" d="M6.8,26.3L7.4,23c0.1-0.6-0.4-1.2-1-1.2H2.9c-0.5,0-0.9,0.4-1,0.8l-0.6,3.3c-0.1,0.6,0.4,1.2,1,1.2h3.5
	C6.2,27.1,6.7,26.8,6.8,26.3z"/>
<path class="st0" d="M20.1,15.6l0.6-3.3c0.1-0.6-0.4-1.2-1-1.2h-3.5c-0.5,0-0.9,0.4-1,0.8l-0.6,3.3c-0.1,0.6,0.4,1.2,1,1.2h3.5
	C19.5,16.5,20,16.1,20.1,15.6z"/>
<path class="st0" d="M8.9,15.6l0.6-3.3c0.1-0.6-0.4-1.2-1-1.2H5c-0.5,0-0.9,0.4-1,0.8l-0.6,3.2c-0.1,0.6,0.4,1.2,1,1.2h3.5
	C8.3,16.5,8.8,16.1,8.9,15.6z"/>
<path class="st0" d="M26.4,12l-0.7,3.7c-0.1,0.5-0.5,0.8-1,0.8h-4.8L19,21c-0.1,0.5-0.5,0.8-1,0.8h-4.8l-0.9,4.5
	c-0.1,0.5-0.5,0.8-1,0.8H6.6l-0.8,4.1c-0.1,0.6,0.4,1.2,1,1.2h119.6c0.5,0,0.9-0.4,1-0.8l3.8-19.2c0.1-0.6-0.4-1.2-1-1.2H27.4
	C26.9,11.1,26.5,11.5,26.4,12z"/>
<path class="st1" d="M95.7,16.9c-0.9-0.7-2.1-1-3.7-1h-5.4l-2.4,12.1h4.1l0.6-3h1l1.7,3h4.2l-2-3.5c0.1,0,0.3-0.1,0.4-0.2
	c0.9-0.4,1.6-1,2.1-1.8c0.5-0.8,0.8-1.6,0.8-2.7C97,18.5,96.5,17.6,95.7,16.9z M92.4,19.2c0.3,0.2,0.4,0.5,0.4,0.9
	c0,0.5-0.2,0.9-0.5,1.2c-0.3,0.3-0.8,0.4-1.3,0.4h-1.7L90,19h1.4C91.8,19,92.2,19.1,92.4,19.2z"/>
<path class="st1" d="M95.8,27.9l2.4-12.1h4.1l-2.4,12.1H95.8z"/>
<path class="st1" d="M100.6,27.9l2.4-12.1h5.5c1.3,0,2.4,0.2,3.3,0.6c0.9,0.4,1.6,1,2.1,1.8c0.5,0.8,0.7,1.7,0.7,2.7
	c0,1.1-0.2,2-0.6,2.9s-0.9,1.6-1.6,2.2c-0.7,0.6-1.5,1.1-2.4,1.4c-0.9,0.3-1.9,0.5-3,0.5L100.6,27.9L100.6,27.9z M105.3,24.7h1.9
	c0.7,0,1.3-0.2,1.8-0.5s0.9-0.7,1.1-1.3c0.3-0.5,0.4-1.1,0.4-1.8c0-0.5-0.1-0.9-0.3-1.2c-0.2-0.3-0.5-0.6-0.8-0.7
	c-0.4-0.2-0.8-0.3-1.4-0.3h-1.6C106.5,19,105.3,24.7,105.3,24.7z"/>
<polygon class="st1" points="125.3,18.9 126,15.8 116.1,15.8 113.7,27.9 123.8,27.9 124.4,24.8 118.3,24.8 118.6,23.3 123.8,23.3 
	124.4,20.3 119.2,20.3 119.5,18.9 "/>
<polygon class="st1" points="80.4,27.9 77,22.3 75.9,27.9 "/>
<polygon class="st1" points="82.3,15.8 77.6,15.8 81.1,21.5 "/>
<path class="st1" d="M41.8,16.9c-0.9-0.7-2.1-1-3.7-1h-5.4l-2.4,12.1h4.1l0.6-3h1l1.7,3h4.2l-2-3.5c0.1,0,0.3-0.1,0.4-0.2
	c0.9-0.4,1.6-1,2.1-1.8c0.5-0.8,0.8-1.7,0.8-2.7C43.1,18.5,42.6,17.6,41.8,16.9z M38.5,19.2c0.3,0.2,0.4,0.5,0.4,0.9
	c0,0.5-0.2,0.9-0.5,1.2c-0.3,0.3-0.8,0.4-1.3,0.4h-1.7l0.6-2.8h1.4C37.9,19,38.3,19.1,38.5,19.2z"/>
<path class="st1" d="M46.5,24.9h6.1l-0.6,3.1H41.9l2.4-12.1h9.8l-0.6,3.1h-5.8C47.7,18.9,46.5,24.9,46.5,24.9z M47.1,20.3h5.4
	L52,23.3h-5.4L47.1,20.3z"/>
<polygon class="st1" points="66.7,15.8 66.7,15.8 62.7,15.8 61.6,21.5 58.1,15.8 54.7,15.8 52.3,27.9 56.3,27.9 57.4,22.3 
	60.9,27.9 64.2,27.9 66,19 69.4,19 67.6,27.9 71.7,27.9 73.5,19 73.5,19 74.2,15.8 "/>
<path class="st0" d="M83.3,41.1c-0.4,0-0.7-0.1-0.9-0.3c-0.2-0.2-0.4-0.5-0.4-0.9c0-0.4,0.1-0.8,0.4-1s0.6-0.4,1-0.4
	c0.4,0,0.7,0.1,0.9,0.3c0.2,0.2,0.3,0.5,0.3,0.9c0,0.3-0.1,0.5-0.2,0.8c-0.1,0.2-0.3,0.4-0.5,0.5C83.8,41.1,83.5,41.1,83.3,41.1z"/>
<path class="st0" d="M88.4,41.2c-0.7,0-1.4-0.1-1.9-0.4c-0.6-0.3-1-0.6-1.3-1.1c-0.3-0.5-0.5-1-0.5-1.7c0-0.6,0.1-1.2,0.3-1.7
	c0.2-0.5,0.5-1,0.9-1.4c0.4-0.4,0.9-0.7,1.4-0.9c0.6-0.2,1.2-0.3,1.8-0.3c0.7,0,1.3,0.1,1.8,0.4c0.5,0.2,0.9,0.6,1.2,1.1l-1.7,1.4
	c-0.2-0.3-0.3-0.5-0.6-0.6c-0.2-0.2-0.5-0.2-0.9-0.2c-0.3,0-0.6,0.1-0.8,0.2s-0.4,0.3-0.6,0.4c-0.2,0.2-0.3,0.4-0.4,0.7
	c-0.1,0.3-0.1,0.6-0.1,0.9c0,0.3,0.1,0.5,0.2,0.7c0.1,0.2,0.3,0.4,0.5,0.5s0.5,0.2,0.8,0.2c0.3,0,0.6-0.1,0.8-0.2s0.5-0.3,0.8-0.6
	l1.4,1.4c-0.4,0.5-0.9,0.9-1.5,1.1C89.7,41.1,89.1,41.2,88.4,41.2L88.4,41.2z"/>
<path class="st0" d="M95.1,41.2c-0.8,0-1.4-0.1-1.9-0.4s-1-0.7-1.3-1.1c-0.3-0.5-0.4-1-0.4-1.7c0-0.6,0.1-1.2,0.3-1.7
	c0.2-0.5,0.5-1,0.9-1.4s0.9-0.7,1.4-0.9c0.6-0.2,1.2-0.3,1.8-0.3c0.8,0,1.4,0.1,1.9,0.4s1,0.7,1.3,1.1c0.3,0.5,0.4,1,0.4,1.7
	c0,0.6-0.1,1.2-0.3,1.7c-0.2,0.5-0.5,1-0.9,1.4c-0.4,0.4-0.9,0.7-1.4,0.9C96.4,41.1,95.8,41.2,95.1,41.2z M95.3,39.2
	c0.3,0,0.6-0.1,0.8-0.2c0.2-0.1,0.4-0.3,0.6-0.5c0.2-0.2,0.3-0.4,0.4-0.7c0.1-0.3,0.1-0.5,0.1-0.8c0-0.3-0.1-0.5-0.2-0.7
	c-0.1-0.2-0.3-0.4-0.5-0.5s-0.5-0.2-0.8-0.2s-0.6,0.1-0.8,0.2c-0.2,0.1-0.4,0.3-0.6,0.5c-0.2,0.2-0.3,0.4-0.4,0.7
	c-0.1,0.3-0.1,0.5-0.1,0.8c0,0.3,0.1,0.5,0.2,0.7c0.1,0.2,0.3,0.4,0.5,0.5C94.8,39.2,95,39.2,95.3,39.2z"/>
<path class="st0" d="M99.1,41l1.4-7.2h2l1.9,4.7h-1l3.7-4.7h2.1l-1.4,7.2h-2.2l0.8-3.9l0.4,0l-2.5,3.2H103l-1.4-3.2l0.4,0l-0.8,3.9
	L99.1,41L99.1,41z"/>
<path class="st0" d="M109.2,41.1c-0.4,0-0.7-0.1-0.9-0.3c-0.2-0.2-0.4-0.5-0.4-0.9c0-0.4,0.1-0.8,0.4-1s0.6-0.4,1-0.4
	c0.4,0,0.7,0.1,0.9,0.3c0.2,0.2,0.3,0.5,0.3,0.9c0,0.3-0.1,0.5-0.2,0.8c-0.1,0.2-0.3,0.4-0.5,0.5C109.8,41.1,109.5,41.1,109.2,41.1z
	"/>
<path class="st0" d="M110.5,41l1.4-7.2h3.8c0.9,0,1.5,0.2,1.9,0.4c0.4,0.3,0.6,0.7,0.6,1.3c0,0.4-0.1,0.8-0.4,1.1s-0.6,0.5-1.1,0.7
	c-0.4,0.2-1,0.2-1.5,0.2l0.3-0.6c0.7,0,1.3,0.1,1.7,0.4c0.4,0.3,0.6,0.7,0.6,1.2c0,0.5-0.2,1-0.5,1.3c-0.3,0.3-0.7,0.6-1.2,0.8
	s-1.1,0.2-1.7,0.2L110.5,41L110.5,41z M113.2,39.3h1.6c0.2,0,0.4-0.1,0.6-0.2c0.2-0.1,0.2-0.3,0.2-0.5c0-0.2-0.1-0.3-0.2-0.4
	c-0.1-0.1-0.3-0.1-0.4-0.1h-1.7l0.3-1.6h1.4c0.2,0,0.3,0,0.5-0.1c0.1,0,0.2-0.1,0.3-0.2c0.1-0.1,0.1-0.2,0.1-0.3
	c0-0.2-0.1-0.3-0.2-0.3c-0.1-0.1-0.3-0.1-0.5-0.1H114C114,35.6,113.2,39.3,113.2,39.3z"/>
<path class="st0" d="M117.7,41l1.4-7.2h3.2c0.8,0,1.4,0.1,2,0.4c0.6,0.2,1,0.6,1.3,1.1s0.4,1,0.4,1.6c0,0.6-0.1,1.2-0.3,1.7
	s-0.5,0.9-0.9,1.3c-0.4,0.4-0.9,0.6-1.4,0.8c-0.6,0.2-1.1,0.3-1.8,0.3C121.6,41,117.7,41,117.7,41z M120.5,39.1h1.1
	c0.4,0,0.8-0.1,1.1-0.3c0.3-0.2,0.5-0.4,0.7-0.8c0.2-0.3,0.2-0.7,0.2-1.1c0-0.3-0.1-0.5-0.2-0.7c-0.1-0.2-0.3-0.3-0.5-0.4
	c-0.2-0.1-0.5-0.2-0.8-0.2h-0.9C121.2,35.7,120.5,39.1,120.5,39.1z"/>
</svg>
