<?xml version="1.0" encoding="utf-8"?>
<!-- Generator: Adobe Illustrator 23.0.5, SVG Export Plug-In . SVG Version: 6.00 Build 0)  -->
<svg version="1.1" id="Layer_1" xmlns="http://www.w3.org/2000/svg" xmlns:xlink="http://www.w3.org/1999/xlink" x="0px" y="0px"
	 viewBox="0 0 112 25.6" style="enable-background:new 0 0 112 25.6;" xml:space="preserve">
<style type="text/css">
	.st0{fill:#353334;}
	.st1{fill:#FFCE00;}
</style>
<g>
	<g>
		<path class="st0" d="M11.5,8.4l0.5-2.8c0.1-0.6-0.3-1.1-0.9-1.1h-3c-0.4,0-0.8,0.3-0.9,0.7L6.8,8C6.7,8.6,7.1,9.1,7.7,9.1h3
			C11.1,9.1,11.4,8.8,11.5,8.4z"/>
		<path class="st0" d="M5.8,12.9l0.5-2.8c0.1-0.5-0.3-1.1-0.9-1.1h-3c-0.4,0-0.8,0.3-0.9,0.7l-0.5,2.8C1,13.1,1.4,13.6,2,13.6h3
			C5.4,13.6,5.8,13.3,5.8,12.9z"/>
		<path class="st0" d="M17.2,3.8L17.7,1c0.1-0.5-0.3-1-0.9-1h-3c-0.4,0-0.8,0.3-0.9,0.7l-0.5,2.8c-0.1,0.6,0.3,1.1,0.9,1.1h3
			C16.7,4.6,17.1,4.3,17.2,3.8z"/>
		<path class="st0" d="M7.6,3.8L8.2,1c0.1-0.5-0.3-1-0.9-1h-3C3.9,0,3.5,0.3,3.5,0.7L2.9,3.5C2.8,4,3.2,4.6,3.8,4.6h3
			C7.2,4.6,7.5,4.3,7.6,3.8z"/>
		<g>
			<path class="st0" d="M22.6,0.7L22,3.8c-0.1,0.4-0.5,0.7-0.9,0.7H17l0,0l-0.8,3.8c-0.1,0.4-0.4,0.7-0.9,0.7h-4.1l0,0l-0.8,3.8
				c-0.1,0.4-0.4,0.7-0.9,0.7h-4l0,0L5,17.1c-0.1,0.5,0.3,1.1,0.9,1.1h102c0.4,0,0.8-0.3,0.9-0.7L112,1.1c0.1-0.6-0.3-1.1-0.9-1.1
				H23.4C23,0,22.6,0.3,22.6,0.7z"/>
		</g>
	</g>
</g>
<g>
	<g>
		<g>
			<path class="st1" d="M81.7,4.9C80.9,4.3,79.9,4,78.5,4h-4.6l-2.1,10.3h3.5l0.5-2.6h0.8l1.5,2.6h3.6l-1.7-3c0.1,0,0.2-0.1,0.3-0.1
				c0.8-0.4,1.4-0.9,1.8-1.5c0.4-0.6,0.6-1.4,0.6-2.3C82.8,6.3,82.4,5.5,81.7,4.9z M78.9,6.9c0.2,0.2,0.3,0.4,0.3,0.8
				c0,0.4-0.1,0.8-0.4,1s-0.6,0.4-1.1,0.4h-1.4l0.5-2.4H78C78.4,6.7,78.7,6.8,78.9,6.9z"/>
			<path class="st1" d="M81.8,14.3L83.8,4h3.5l-2.1,10.3H81.8z"/>
			<path class="st1" d="M85.9,14.3L88,4h4.7c1.1,0,2,0.2,2.8,0.5s1.4,0.9,1.8,1.5c0.4,0.7,0.6,1.4,0.6,2.3c0,0.9-0.2,1.7-0.5,2.5
				s-0.8,1.4-1.3,1.9c-0.6,0.5-1.3,0.9-2,1.2c-0.8,0.3-1.7,0.4-2.6,0.4L85.9,14.3L85.9,14.3z M89.9,11.6h1.6c0.6,0,1.1-0.1,1.6-0.4
				c0.4-0.3,0.7-0.6,0.9-1.1c0.2-0.5,0.3-1,0.3-1.5c0-0.4-0.1-0.7-0.2-1c-0.2-0.3-0.4-0.5-0.7-0.6c-0.3-0.2-0.7-0.2-1.2-0.2h-1.3
				L89.9,11.6z"/>
			<polygon class="st1" points="107,6.6 107.5,4 99.1,4 97.1,14.3 105.7,14.3 106.2,11.7 101,11.7 101.3,10.3 105.7,10.3 106.2,7.8 
				101.8,7.8 102,6.6 			"/>
		</g>
		<g>
			<g>
				<polygon class="st1" points="68.7,14.3 65.7,9.5 64.8,14.3 				"/>
			</g>
			<g>
				<polygon class="st1" points="70.2,4 66.3,4 69.3,8.8 				"/>
			</g>
		</g>
	</g>
	<g>
		<path class="st1" d="M35.7,4.9C35,4.3,33.9,4,32.5,4h-4.6l-2.1,10.3h3.5l0.5-2.6h0.9l1.5,2.6h3.6l-1.7-3c0.1,0,0.2-0.1,0.3-0.1
			c0.8-0.4,1.4-0.9,1.8-1.5s0.6-1.4,0.6-2.3C36.8,6.3,36.5,5.5,35.7,4.9z M33,6.9c0.2,0.2,0.3,0.4,0.3,0.8c0,0.4-0.1,0.8-0.4,1
			c-0.3,0.2-0.6,0.4-1.1,0.4h-1.4l0.5-2.4H32C32.4,6.7,32.7,6.8,33,6.9z"/>
		<path class="st1" d="M39.7,11.7h5.2l-0.5,2.6h-8.6L37.9,4h8.4l-0.5,2.6h-5L39.7,11.7z M40.3,7.8h4.6l-0.5,2.5h-4.6L40.3,7.8z"/>
		<polygon class="st1" points="57,4 57,4 53.5,4 52.6,8.8 49.6,4 46.8,4 44.7,14.3 48.1,14.3 49,9.5 52,14.3 54.9,14.3 56.4,6.7 
			59.3,6.7 57.8,14.3 61.3,14.3 62.8,6.7 62.8,6.7 63.3,4 		"/>
	</g>
</g>
<g>
	<path class="st0" d="M71.1,25.6c-0.3,0-0.6-0.1-0.8-0.3c-0.2-0.2-0.3-0.4-0.3-0.8c0-0.4,0.1-0.7,0.4-0.9s0.5-0.3,0.9-0.3
		c0.3,0,0.6,0.1,0.8,0.3c0.2,0.2,0.3,0.4,0.3,0.8c0,0.2-0.1,0.5-0.2,0.6s-0.3,0.3-0.4,0.4C71.5,25.5,71.3,25.6,71.1,25.6z"/>
	<path class="st0" d="M75.5,25.6c-0.6,0-1.2-0.1-1.7-0.4s-0.8-0.5-1.1-1s-0.4-0.9-0.4-1.4s0.1-1,0.3-1.5c0.2-0.5,0.5-0.8,0.8-1.2
		c0.3-0.3,0.8-0.6,1.2-0.8s1-0.3,1.6-0.3c0.6,0,1.1,0.1,1.6,0.3c0.4,0.2,0.8,0.5,1,0.9l-1.5,1.2c-0.1-0.2-0.3-0.4-0.5-0.5
		c-0.2-0.1-0.4-0.2-0.7-0.2c-0.2,0-0.5,0-0.7,0.1s-0.4,0.2-0.5,0.4c-0.2,0.2-0.3,0.4-0.3,0.6c-0.1,0.2-0.1,0.5-0.1,0.8
		c0,0.2,0.1,0.5,0.2,0.6c0.1,0.2,0.3,0.3,0.4,0.4s0.4,0.1,0.7,0.1c0.2,0,0.5-0.1,0.7-0.2c0.2-0.1,0.4-0.3,0.7-0.5l1.2,1.2
		c-0.4,0.5-0.8,0.8-1.3,1C76.6,25.5,76,25.6,75.5,25.6z"/>
	<path class="st0" d="M81.2,25.6c-0.6,0-1.2-0.1-1.7-0.4s-0.8-0.6-1.1-1c-0.3-0.4-0.4-0.9-0.4-1.4s0.1-1,0.3-1.5
		c0.2-0.5,0.5-0.8,0.8-1.2c0.3-0.3,0.8-0.6,1.2-0.8s1-0.3,1.6-0.3c0.6,0,1.2,0.1,1.7,0.4s0.8,0.6,1.1,1c0.3,0.4,0.4,0.9,0.4,1.4
		c0,0.5-0.1,1-0.3,1.5c-0.2,0.5-0.5,0.8-0.8,1.2c-0.3,0.3-0.8,0.6-1.2,0.8C82.3,25.5,81.8,25.6,81.2,25.6z M81.4,24
		c0.3,0,0.5,0,0.7-0.1s0.4-0.2,0.5-0.4s0.2-0.4,0.3-0.6c0.1-0.2,0.1-0.5,0.1-0.7c0-0.2-0.1-0.5-0.1-0.6c-0.1-0.2-0.2-0.3-0.4-0.4
		s-0.4-0.1-0.6-0.1s-0.5,0-0.7,0.1c-0.2,0.1-0.4,0.2-0.5,0.4s-0.2,0.4-0.3,0.6c-0.1,0.2-0.1,0.5-0.1,0.7c0,0.2,0.1,0.4,0.1,0.6
		c0.1,0.2,0.2,0.3,0.4,0.4C80.9,23.9,81.1,24,81.4,24z"/>
	<path class="st0" d="M84.6,25.5l1.2-6.1h1.7l1.6,4h-0.9l3.2-4h1.8l-1.2,6.1H90l0.6-3.3l0.3,0l-2.1,2.8H88l-1.2-2.8l0.3,0l-0.7,3.3
		L84.6,25.5L84.6,25.5z"/>
	<path class="st0" d="M93.3,25.6c-0.3,0-0.6-0.1-0.8-0.3c-0.2-0.2-0.3-0.4-0.3-0.8c0-0.4,0.1-0.7,0.4-0.9s0.5-0.3,0.9-0.3
		c0.3,0,0.6,0.1,0.8,0.3c0.2,0.2,0.3,0.4,0.3,0.8c0,0.2-0.1,0.5-0.2,0.6s-0.3,0.3-0.4,0.4C93.7,25.5,93.5,25.6,93.3,25.6z"/>
	<path class="st0" d="M94.3,25.5l1.2-6.1h3.3c0.7,0,1.3,0.1,1.6,0.4c0.4,0.3,0.6,0.6,0.6,1.1c0,0.4-0.1,0.7-0.3,1
		c-0.2,0.3-0.5,0.5-0.9,0.6c-0.4,0.1-0.8,0.2-1.3,0.2l0.3-0.5c0.6,0,1.1,0.1,1.5,0.4c0.4,0.3,0.5,0.6,0.5,1c0,0.5-0.1,0.8-0.4,1.1
		s-0.6,0.5-1,0.6s-0.9,0.2-1.4,0.2L94.3,25.5L94.3,25.5z M96.7,24H98c0.2,0,0.4,0,0.5-0.1s0.2-0.2,0.2-0.4c0-0.1-0.1-0.2-0.2-0.3
		s-0.2-0.1-0.3-0.1h-1.5l0.3-1.4h1.2c0.2,0,0.3,0,0.4-0.1c0.1,0,0.2-0.1,0.2-0.2c0.1-0.1,0.1-0.2,0.1-0.3c0-0.1-0.1-0.2-0.1-0.3
		c-0.1-0.1-0.2-0.1-0.4-0.1h-1L96.7,24z"/>
	<path class="st0" d="M100.5,25.5l1.2-6.1h2.8c0.7,0,1.2,0.1,1.7,0.3s0.8,0.5,1.1,0.9s0.4,0.9,0.4,1.4c0,0.5-0.1,1-0.3,1.5
		c-0.2,0.4-0.4,0.8-0.8,1.1c-0.3,0.3-0.7,0.5-1.2,0.7s-1,0.2-1.5,0.2C103.8,25.5,100.5,25.5,100.5,25.5z M102.9,23.9h1
		c0.4,0,0.7-0.1,0.9-0.2s0.4-0.4,0.6-0.6c0.1-0.3,0.2-0.6,0.2-0.9c0-0.2-0.1-0.4-0.1-0.6c-0.1-0.2-0.2-0.3-0.4-0.4
		c-0.2-0.1-0.4-0.1-0.7-0.1h-0.8L102.9,23.9z"/>
</g>
</svg>
