<?xml version="1.0" encoding="utf-8"?>
<!-- Generator: Adobe Illustrator 23.0.5, SVG Export Plug-In . SVG Version: 6.00 Build 0)  -->
<svg version="1.1" id="Layer_1" xmlns="http://www.w3.org/2000/svg" xmlns:xlink="http://www.w3.org/1999/xlink" x="0px" y="0px"
	 viewBox="0 0 153.8 25.2" style="enable-background:new 0 0 153.8 25.2;" xml:space="preserve">
<style type="text/css">
	.st0{fill:#353334;}
	.st1{fill:#FFCE00;}
</style>
<g>
	<g>
		<g>
			<path class="st0" d="M14.5,11.6l0.7-3.9c0.1-0.8-0.4-1.5-1.2-1.5H9.8c-0.6,0-1.1,0.4-1.2,1L8,11.1c-0.1,0.8,0.4,1.5,1.2,1.5h4.2
				C14,12.6,14.4,12.2,14.5,11.6z"/>
			<path class="st0" d="M6.6,17.9L7.3,14c0.1-0.7-0.4-1.5-1.2-1.5H1.9c-0.6,0-1.1,0.4-1.2,1L0,17.3c0,0.8,0.6,1.5,1.4,1.5h4.2
				C6.1,18.8,6.6,18.4,6.6,17.9z"/>
			<path class="st0" d="M22.4,5.3l0.7-3.9C23.3,0.7,22.7,0,21.9,0h-4.2c-0.6,0-1.1,0.4-1.2,1l-0.7,3.9c-0.1,0.8,0.4,1.5,1.2,1.5h4.2
				C21.7,6.4,22.3,6,22.4,5.3z"/>
			<path class="st0" d="M9.1,5.3L10,1.4C10.1,0.7,9.6,0,8.7,0H4.6C4,0,3.5,0.4,3.5,1L2.6,4.8C2.5,5.5,3,6.4,3.9,6.4H8
				C8.6,6.4,9,6,9.1,5.3z"/>
			<g>
				<path class="st0" d="M29.9,1l-0.8,4.3c-0.1,0.6-0.7,1-1.2,1h-5.7l0,0l-1.1,5.3c-0.1,0.6-0.6,1-1.2,1h-5.7l0,0L13,17.7
					c-0.1,0.6-0.6,1-1.2,1H6.2l0,0l-0.7,5c-0.1,0.7,0.4,1.5,1.2,1.5h141.3c0.6,0,1.1-0.4,1.2-1l4.4-22.7c0.1-0.8-0.4-1.5-1.2-1.5H31
					C30.5,0,29.9,0.4,29.9,1z"/>
			</g>
		</g>
	</g>
	<g>
		<g>
			<g>
				<path class="st1" d="M111.8,6.8c-1.1-0.8-2.5-1.2-4.4-1.2H101l-2.9,14.3h4.8l0.7-3.6h1.1l2.1,3.6h5l-2.4-4.2
					c0.1,0,0.3-0.1,0.4-0.1c1.1-0.6,1.9-1.2,2.5-2.1c0.6-0.8,0.8-1.9,0.8-3.2C113.3,8.7,112.7,7.6,111.8,6.8z M107.9,9.6
					c0.3,0.3,0.4,0.6,0.4,1.1c0,0.6-0.1,1.1-0.6,1.4s-0.8,0.6-1.5,0.6h-1.9l0.7-3.3h1.7C107.2,9.3,107.6,9.4,107.9,9.6z"/>
				<path class="st1" d="M111.9,19.8l2.8-14.3h4.8l-2.9,14.3H111.9z"/>
				<path class="st1" d="M117.6,19.8l2.9-14.3h6.5c1.5,0,2.8,0.3,3.9,0.7c1.1,0.4,1.9,1.2,2.5,2.1c0.6,1,0.8,1.9,0.8,3.2
					s-0.3,2.4-0.7,3.5c-0.4,1.1-1.1,1.9-1.8,2.6c-0.8,0.7-1.8,1.2-2.8,1.7c-1.1,0.4-2.4,0.6-3.6,0.6H117.6L117.6,19.8z M123.1,16.1
					h2.2c0.8,0,1.5-0.1,2.2-0.6c0.6-0.4,1-0.8,1.2-1.5c0.3-0.7,0.4-1.4,0.4-2.1c0-0.6-0.1-1-0.3-1.4c-0.3-0.4-0.6-0.7-1-0.8
					c-0.4-0.3-1-0.3-1.7-0.3h-1.8L123.1,16.1z"/>
				<polygon class="st1" points="146.8,9.1 147.5,5.5 135.9,5.5 133.1,19.8 145,19.8 145.7,16.2 138.5,16.2 138.9,14.3 145,14.3 
					145.7,10.8 139.6,10.8 139.9,9.1 				"/>
			</g>
			<g>
				<g>
					<polygon class="st1" points="93.8,19.8 89.6,13.2 88.4,19.8 					"/>
				</g>
				<g>
					<polygon class="st1" points="95.8,5.5 90.4,5.5 94.6,12.2 					"/>
				</g>
			</g>
		</g>
		<g>
			<path class="st1" d="M48.1,6.8c-1-0.8-2.5-1.2-4.4-1.2h-6.4l-2.9,14.3h4.8l0.7-3.6h1.2l2.1,3.6h5l-2.4-4.2c0.1,0,0.3-0.1,0.4-0.1
				c1.1-0.6,1.9-1.2,2.5-2.1c0.6-0.8,0.8-1.9,0.8-3.2C49.6,8.7,49.2,7.6,48.1,6.8z M44.3,9.6c0.3,0.3,0.4,0.6,0.4,1.1
				c0,0.6-0.1,1.1-0.6,1.4c-0.4,0.3-0.8,0.6-1.5,0.6h-1.9l0.7-3.3h1.5C43.5,9.3,43.9,9.4,44.3,9.6z"/>
			<path class="st1" d="M53.6,16.2h7.2l-0.7,3.6H48.2l2.9-14.3h11.6L62,9.1h-6.9L53.6,16.2z M54.4,10.8h6.4l-0.7,3.5h-6.4L54.4,10.8
				z"/>
			<polyline class="st1" points="70.6,19.8 74.7,19.8 76.7,9.3 80.7,9.3 78.7,19.8 83.5,19.8 85.6,9.3 85.6,9.3 86.3,5.5 77.6,5.5 
				77.6,5.5 72.7,5.5 71.5,12.2 67.3,5.5 63.4,5.5 60.5,19.8 65.2,19.8 66.5,13.2 70.6,19.8 			"/>
		</g>
	</g>
</g>
</svg>
